<svg id="visual" viewBox="0 0 960 540" width="960" height="540" xmlns="http://www.w3.org/2000/svg" xmlns:xlink="http://www.w3.org/1999/xlink" version="1.1"><rect x="0" y="0" width="960" height="540" fill="#001220"></rect><path d="M0 343L22.8 335.8C45.7 328.7 91.3 314.3 137 321.2C182.7 328 228.3 356 274 366.3C319.7 376.7 365.3 369.3 411.2 349.7C457 330 503 298 548.8 300.3C594.7 302.7 640.3 339.3 686 343.8C731.7 348.3 777.3 320.7 823 303.8C868.7 287 914.3 281 937.2 278L960 275L960 541L937.2 541C914.3 541 868.7 541 823 541C777.3 541 731.7 541 686 541C640.3 541 594.7 541 548.8 541C503 541 457 541 411.2 541C365.3 541 319.7 541 274 541C228.3 541 182.7 541 137 541C91.3 541 45.7 541 22.8 541L0 541Z" fill="#fa7268"></path><path d="M0 356L22.8 360.3C45.7 364.7 91.3 373.3 137 372.5C182.7 371.7 228.3 361.3 274 358.2C319.7 355 365.3 359 411.2 371.2C457 383.3 503 403.7 548.8 412C594.7 420.3 640.3 416.7 686 404.5C731.7 392.3 777.3 371.7 823 363.2C868.7 354.7 914.3 358.3 937.2 360.2L960 362L960 541L937.2 541C914.3 541 868.7 541 823 541C777.3 541 731.7 541 686 541C640.3 541 594.7 541 548.8 541C503 541 457 541 411.2 541C365.3 541 319.7 541 274 541C228.3 541 182.7 541 137 541C91.3 541 45.7 541 22.8 541L0 541Z" fill="#ef5f67"></path><path d="M0 420L22.8 421.7C45.7 423.3 91.3 426.7 137 422.2C182.7 417.7 228.3 405.3 274 395C319.7 384.7 365.3 376.3 411.2 384C457 391.7 503 415.3 548.8 419.3C594.7 423.3 640.3 407.7 686 402.8C731.7 398 777.3 404 823 414.2C868.7 424.3 914.3 438.7 937.2 445.8L960 453L960 541L937.2 541C914.3 541 868.7 541 823 541C777.3 541 731.7 541 686 541C640.3 541 594.7 541 548.8 541C503 541 457 541 411.2 541C365.3 541 319.7 541 274 541C228.3 541 182.7 541 137 541C91.3 541 45.7 541 22.8 541L0 541Z" fill="#e34c67"></path><path d="M0 470L22.8 462.2C45.7 454.3 91.3 438.7 137 438.2C182.7 437.7 228.3 452.3 274 462.7C319.7 473 365.3 479 411.2 467.5C457 456 503 427 548.8 418.7C594.7 410.3 640.3 422.7 686 431.2C731.7 439.7 777.3 444.3 823 441.2C868.7 438 914.3 427 937.2 421.5L960 416L960 541L937.2 541C914.3 541 868.7 541 823 541C777.3 541 731.7 541 686 541C640.3 541 594.7 541 548.8 541C503 541 457 541 411.2 541C365.3 541 319.7 541 274 541C228.3 541 182.7 541 137 541C91.3 541 45.7 541 22.8 541L0 541Z" fill="#d53867"></path><path d="M0 493L22.8 494.3C45.7 495.7 91.3 498.3 137 498.5C182.7 498.7 228.3 496.3 274 499.8C319.7 503.3 365.3 512.7 411.2 514.8C457 517 503 512 548.8 503.8C594.7 495.7 640.3 484.3 686 483.8C731.7 483.3 777.3 493.7 823 498.3C868.7 503 914.3 502 937.2 501.5L960 501L960 541L937.2 541C914.3 541 868.7 541 823 541C777.3 541 731.7 541 686 541C640.3 541 594.7 541 548.8 541C503 541 457 541 411.2 541C365.3 541 319.7 541 274 541C228.3 541 182.7 541 137 541C91.3 541 45.7 541 22.8 541L0 541Z" fill="#c62368"></path></svg>